<!--?xml version="1.0" encoding="utf-8"?-->
<!-- Generator: Adobe Illustrator 18.1.1, SVG Export Plug-In . SVG Version: 6.00 Build 0)  -->

<svg version="1.1" id="_x31_0" xmlns="http://www.w3.org/2000/svg" xmlns:xlink="http://www.w3.org/1999/xlink" x="0px" y="0px" viewBox="0 0 512 512" style="width: 512px; height: 512px; opacity: 1;" xml:space="preserve">
<style type="text/css">
	.st0{fill:#374149;}
</style>
<g>
	<path class="st0" d="M477.814,97.224c-27.922-25.336-150.73-49.266-221.813-49.266c-71.086,0-193.894,23.93-221.812,49.266
		c-39.473,35.82-33.922,90.551-33.922,90.551l40.344,38.426l90.297-34.582c6.551-1.922-0.633-46.332-5.125-61.734
		c-2.153-7.39,17.434-13.625,40.84-18.25c42.07-8.313,136.683-8.313,178.758,0c23.406,4.625,42.992,10.859,40.836,18.25
		c-4.488,15.402-11.676,59.813-5.125,61.734l90.297,34.582l40.344-38.426C511.733,187.776,517.283,133.044,477.814,97.224z" style="fill: rgb(255, 255, 255);"></path>
	<path class="st0" d="M336.611,220.643c-0.035-0.137-0.05-0.274-0.082-0.41c-0.157-0.703-0.266-1.406-0.266-2.102
		c0-15.371,0-49.523,0-49.523h-16.418v-23.91h-34.152v23.91h-29.692H226.31v-23.91h-34.156v23.91h-16.418c0,0,0,34.152,0,49.523
		c0,0.695-0.109,1.402-0.266,2.11c-0.027,0.133-0.042,0.266-0.078,0.398c-6.418,24.785-103.825,56.027-103.825,107.637
		c0,50.605,0,128.144,0,135.191v0.414l0,0c0,0.07,0,0.16,0,0.16h184.434h184.434c0,0,0-82.715,0-135.766
		C440.435,276.67,343.034,245.428,336.611,220.643z M333.514,377.764l-37.426-26.918c5.148-7.676,8.156-16.902,8.156-26.836
		c0-26.645-21.598-48.242-48.242-48.242c-26.644,0-48.242,21.598-48.242,48.242c0,26.64,21.598,48.242,48.242,48.242
		c11.325,0,21.719-3.93,29.95-10.465l26.953,37.473c-15.82,11.981-35.527,19.102-56.902,19.102
		c-52.109,0-94.351-42.242-94.351-94.351c0-52.11,42.242-94.352,94.351-94.352c52.106,0,94.348,42.242,94.348,94.352
		c0,19.578-6.004,37.726-16.215,52.801C333.92,377.127,333.733,377.455,333.514,377.764z" style="fill: rgb(255, 255, 255);"></path>
</g>
</svg>
